# xmcd
#
# Track frame offsets: 
#        150
#        11913
#        23172
#        38262
#        56510
#        75242
#        91583
#        111523
#        128067
#        144930
#        153920
#        169958
#
# Disc length: 2436 seconds
#
# Revision: 0
# Processed by: cddbd v1.5.1PL0 Copyright (c) Steve Scherf et al.
# Submitted via: ExactAudioCopy v0.95a5
#
DISCID=8409820c
DTITLE=Peasall Sisters - Home to You
DYEAR=2005
DGENRE=Folk
TTITLE0=Home to You
TTITLE1=Rushing Around
TTITLE2=Freight Train Blues
TTITLE3=Logtown
TTITLE4=Gray County Line
TTITLE5=Angel Band
TTITLE6=I Never Will Marry
TTITLE7=The Old Church Yard
TTITLE8=Fair and Tender Ladies
TTITLE9=The Old Account
TTITLE10=Carrick Fergus
TTITLE11=Where No One Stands Alone
EXTD=
EXTT0=
EXTT1=
EXTT2=
EXTT3=
EXTT4=
EXTT5=
EXTT6=
EXTT7=
EXTT8=
EXTT9=
EXTT10=
EXTT11=
PLAYORDER=
